<svg xmlns="http://www.w3.org/2000/svg" viewBox="0 0 400 260"><defs><linearGradient id="s" x1="0" y1="0" x2="0" y2="1"><stop offset="0" stop-color="#60a5fa"/><stop offset="1" stop-color="#bfdbfe"/></linearGradient></defs><rect width="400" height="260" fill="url(#s)"/><circle cx="320" cy="55" r="26" fill="#fde68a"/><path d="M0 150 70 70l60 60 70-90 80 100 60-50 60 60v160H0z" fill="#1e3a8a"/><path d="M70 70l-22 26 14-4 8 10 8-12 12 4zM200 40l-26 34 14-6 12 12 10-14 16 6z" fill="#e0e7ff"/><path d="M0 190 90 120l90 70 90-80 130 90v60H0z" fill="#166534"/><path d="M0 230 120 180l120 50 160-40v70H0z" fill="#14532d"/></svg>
